<?xml version="1.0" encoding="utf-8"?>
<!-- Generator: Adobe Illustrator 15.0.0, SVG Export Plug-In . SVG Version: 6.00 Build 0)  -->
<!DOCTYPE svg PUBLIC "-//W3C//DTD SVG 1.1//EN" "http://www.w3.org/Graphics/SVG/1.1/DTD/svg11.dtd">
<svg version="1.1" id="Layer_1" xmlns="http://www.w3.org/2000/svg" xmlns:xlink="http://www.w3.org/1999/xlink" x="0px" y="0px"
	 width="222px" height="40px" viewBox="0 0 222 40" enable-background="new 0 0 222 40" xml:space="preserve">
<path fill="none" stroke="#004685" stroke-width="1.984" stroke-linecap="round" stroke-linejoin="round" d="M2.057,3.988
	c0.014,0.024,3.158-1.851,3.17-1.83C5.269,2.231,4.99,5.564,5.034,5.642c0.086,0.149,5.914-3.616,6.001-3.465
	c0.19,0.329-9.622,9.104-9.436,9.426c0.167,0.288,15.001-9.181,15.226-8.791C17.091,3.27,1.95,13.958,2.17,14.339
	C2.415,14.764,24.582,0.656,24.904,1.214c0.38,0.657-20.972,15.212-20.675,15.727c0.305,0.529,25.438-15.37,25.734-14.858
	c0.434,0.751-26.018,17.124-25.57,17.896C4.788,20.664,32.501,2.872,32.883,3.532c0.389,0.673-28.21,18.953-27.76,19.732
	C5.598,24.086,41.776,0.965,42.27,1.818C42.868,2.856,4.567,26.504,5.11,27.445c0.728,1.26,44.839-27.099,45.363-26.19
	c0.589,1.02-49.897,30.831-49.079,32.249c0.603,1.043,53.68-32.541,54.35-31.379c0.688,1.19-51.739,31.209-50.852,32.747
	C5.618,36.127,58.256,1.935,59.177,3.529C59.836,4.671,5.911,36.57,6.713,37.957C7.586,39.469,69.416-0.558,70.417,1.175
	c0.859,1.488-59.314,36.006-58.549,37.334c0.706,1.223,61.816-37.546,62.62-36.154c0.671,1.162-56.225,34.408-55.562,35.557
	C19.85,39.51,79.692,0.501,80.699,2.247c0.779,1.348-55.817,33.544-54.929,35.085c1.035,1.791,60.761-36.913,61.555-35.539
	C88.139,3.202,31.086,35.264,32.03,36.9c0.896,1.553,57.83-35.236,58.63-33.85c0.649,1.124-53.784,32.776-53.013,34.11
	c0.782,1.355,61.19-37.259,62.026-35.812c0.882,1.528-57.912,35.255-57.181,36.522c1.017,1.76,59.259-36.032,60.046-34.668
	c0.897,1.554-54.731,32.805-53.883,34.276c0.823,1.426,60.848-37.196,61.742-35.647c0.914,1.582-57.844,35.467-57.126,36.711
	c0.836,1.447,62.694-38.37,63.634-36.739c0.898,1.554-55.423,33.521-54.557,35.021c0.939,1.627,58.029-35.89,59.063-34.1
	C122.273,4.213,64.484,37,65.321,38.451c0.845,1.463,59.272-35.893,59.995-34.64c0.635,1.1-53.333,31.997-52.443,33.54
	c0.792,1.369,60.363-37.11,61.34-35.415C135,3.298,76.667,36.793,77.572,38.361c0.705,1.223,59.318-36.283,60.199-34.756
	c0.734,1.273-53.4,32.596-52.528,34.105c0.713,1.234,59.46-36.512,60.405-34.875c0.803,1.39-53.503,32.374-52.657,33.838
	c0.883,1.529,59.239-36.106,60.065-34.679c0.689,1.199-56.346,34.496-55.449,36.05c0.804,1.393,59.078-35.982,59.889-34.578
	c0.768,1.328-55.162,33.355-54.272,34.894c0.825,1.43,63.69-38.66,64.509-37.243c0.988,1.711-58.547,35.756-57.833,36.993
	c0.901,1.559,59.505-36.473,60.423-34.885c0.762,1.319-56.676,33.975-55.891,35.334c0.891,1.547,63.996-39.099,64.928-37.485
	c0.777,1.345-59.422,35.834-58.672,37.133c0.766,1.326,62.828-37.953,63.555-36.693c0.971,1.681-55.664,33.467-54.891,34.803
	c0.953,1.65,56.354-34.515,57.209-33.031c0.793,1.371-51.592,32.199-50.91,33.38c0.865,1.496,56.965-35.214,57.971-33.47
	c0.705,1.223-52.746,31.472-51.877,32.98c0.803,1.387,59.172-35.862,59.908-34.587c0.783,1.357-56.908,33.736-55.959,35.378
	c0.762,1.322,56.52-34.951,57.523-33.211c0.887,1.534-50.615,31.6-49.922,32.801c0.75,1.299,56.508-34.876,57.482-33.187
	c0.889,1.54-51.65,31.208-50.771,32.728c0.861,1.492,57.287-35.019,58.129-33.56c0.918,1.589-57.857,34.839-57.059,36.224
	c0.84,1.455,56.168-34.212,56.941-32.874c0.561,0.972-47.449,29.478-46.695,30.782c0.68,1.178,46.084-27.945,46.664-26.94
	c0.756,1.31-45.137,27.89-44.547,28.913c0.736,1.273,44.803-27.545,45.529-26.286c0.557,0.965-37.262,23.772-36.768,24.626
	c0.518,0.895,37.664-23.1,38.252-22.084c0.57,0.988-35.625,22.584-35.033,23.607c0.457,0.793,32.412-19.84,32.9-18.995
	c0.389,0.674-26.283,17.351-25.867,18.073c0.404,0.699,26.977-16.318,27.297-15.76c0.332,0.572-23.123,15.863-22.828,16.377
	c0.322,0.559,23.313-14.178,23.623-13.639c0.232,0.4-15.564,12.129-15.355,12.492c0.166,0.289,12.902-7.836,13.07-7.545
	c0.109,0.191-5.979,6.916-5.883,7.082s4.746-3.035,4.875-2.813c0.047,0.08-0.49,4.029-0.438,4.125
	c0.016,0.023,3.783-2.223,3.801-2.195"/>
<rect x="3.499" y="2.418" fill="none" stroke="#004685" stroke-width="2" stroke-linejoin="round" stroke-miterlimit="10" width="215" height="35"/>
</svg>
